# xmcd CD database file
#
# Track frame offsets:
#	150
#	14038
#	26918
#	40526
#	51891
#	64004
#	80109
#	93171
#	106670
#	118966
#	131551
#
# Disc length: 1973 seconds
#
# Revision: 0
# Processed by: cddbd v1.5.2PL0 Copyright (c) Steve Scherf et al.
# Submitted via: CDex 1.51
#
DISCID=9107b30b
DTITLE=Ronnie Reno and the Reno Tradition - Lessons Learned
DYEAR=2015
DGENRE=Country
TTITLE0=Ronnie Reno and the Reno Tradition - Lower Than Lonesome
TTITLE1=Ronnie Reno and the Reno Tradition - Lessons Learned
TTITLE2=Ronnie Reno and the Reno Tradition - I Think Of You
TTITLE3=Ronnie Reno and the Reno Tradition - Sweet Rosa Lee
TTITLE4=Ronnie Reno and the Reno Tradition - Deep Part Of Your Heart
TTITLE5=Ronnie Reno and the Reno Tradition - Reno's Mando Magic
TTITLE6=Ronnie Reno and the Reno Tradition - Trail Of Sorrow
TTITLE7=Ronnie Reno and the Reno Tradition - All That's Worth Remembering
TTITLE8=Ronnie Reno and the Reno Tradition - Our Last Good-Bye
TTITLE9=Ronnie Reno and the Reno Tradition  - Bad News At Home 
TTITLE10=Ronnie Reno and the Reno Tradition  - Always Late (Bonus Song)
EXTD=YEAR: 2015
EXTT0=
EXTT1=
EXTT2=
EXTT3=
EXTT4=
EXTT5=
EXTT6=
EXTT7=
EXTT8=
EXTT9=
EXTT10=
PLAYORDER=
